<mxfile host="app.diagrams.net" modified="2021-02-07T20:41:28.289Z" agent="5.0 (Windows NT 10.0; Win64; x64) AppleWebKit/537.36 (KHTML, like Gecko) Chrome/88.0.4324.146 Safari/537.36" etag="RazOgUaN91_o_oupqIs7" version="14.2.9" type="github">
  <diagram id="lIgAJKMXiZVjgPJ8aUWg" name="Page-1">
    <mxGraphModel dx="2062" dy="1122" grid="1" gridSize="10" guides="1" tooltips="1" connect="1" arrows="1" fold="1" page="1" pageScale="1" pageWidth="900" pageHeight="1600" math="0" shadow="0">
      <root>
        <mxCell id="0" />
        <mxCell id="1" parent="0" />
        <mxCell id="fEwWPPyDHbLscD8lhj89-3" value="" style="edgeStyle=orthogonalEdgeStyle;rounded=0;orthogonalLoop=1;jettySize=auto;html=1;" parent="1" source="fEwWPPyDHbLscD8lhj89-1" target="fEwWPPyDHbLscD8lhj89-2" edge="1">
          <mxGeometry relative="1" as="geometry" />
        </mxCell>
        <mxCell id="fEwWPPyDHbLscD8lhj89-1" value="&lt;span style=&quot;font-size: 22px&quot;&gt;&lt;b&gt;Start&lt;/b&gt;&lt;/span&gt;" style="ellipse;whiteSpace=wrap;html=1;strokeColor=#b85450;fillColor=#FF3333;" parent="1" vertex="1">
          <mxGeometry x="210" y="10" width="120" height="80" as="geometry" />
        </mxCell>
        <mxCell id="fEwWPPyDHbLscD8lhj89-5" value="" style="edgeStyle=orthogonalEdgeStyle;rounded=0;orthogonalLoop=1;jettySize=auto;html=1;" parent="1" source="fEwWPPyDHbLscD8lhj89-2" target="fEwWPPyDHbLscD8lhj89-4" edge="1">
          <mxGeometry relative="1" as="geometry" />
        </mxCell>
        <mxCell id="fEwWPPyDHbLscD8lhj89-2" value="Ask for player&lt;br&gt;name" style="shape=parallelogram;perimeter=parallelogramPerimeter;whiteSpace=wrap;html=1;fixedSize=1;strokeColor=#82b366;fillColor=#d5e8d4;" parent="1" vertex="1">
          <mxGeometry x="210" y="180" width="120" height="60" as="geometry" />
        </mxCell>
        <mxCell id="dgBgMq-GI6_0xmcY7j5n-6" value="" style="edgeStyle=orthogonalEdgeStyle;rounded=1;orthogonalLoop=1;jettySize=auto;html=1;" parent="1" source="fEwWPPyDHbLscD8lhj89-4" target="dgBgMq-GI6_0xmcY7j5n-5" edge="1">
          <mxGeometry relative="1" as="geometry" />
        </mxCell>
        <mxCell id="fEwWPPyDHbLscD8lhj89-4" value="Start Game" style="whiteSpace=wrap;html=1;strokeColor=#82b366;fillColor=#d5e8d4;" parent="1" vertex="1">
          <mxGeometry x="210" y="320" width="120" height="60" as="geometry" />
        </mxCell>
        <mxCell id="fEwWPPyDHbLscD8lhj89-9" value="" style="edgeStyle=orthogonalEdgeStyle;rounded=0;orthogonalLoop=1;jettySize=auto;html=1;" parent="1" source="fEwWPPyDHbLscD8lhj89-6" target="fEwWPPyDHbLscD8lhj89-8" edge="1">
          <mxGeometry relative="1" as="geometry" />
        </mxCell>
        <mxCell id="fEwWPPyDHbLscD8lhj89-6" value="Print score" style="whiteSpace=wrap;html=1;strokeColor=#82b366;fillColor=#d5e8d4;" parent="1" vertex="1">
          <mxGeometry x="570" y="320" width="120" height="60" as="geometry" />
        </mxCell>
        <mxCell id="fEwWPPyDHbLscD8lhj89-8" value="Play again" style="rhombus;whiteSpace=wrap;html=1;strokeColor=#82b366;fillColor=#d5e8d4;" parent="1" vertex="1">
          <mxGeometry x="590" y="170" width="80" height="80" as="geometry" />
        </mxCell>
        <mxCell id="fEwWPPyDHbLscD8lhj89-14" value="&lt;font style=&quot;font-size: 22px&quot;&gt;End&lt;/font&gt;" style="ellipse;whiteSpace=wrap;html=1;strokeColor=#b85450;fillColor=#FF3333;" parent="1" vertex="1">
          <mxGeometry x="570" y="10" width="120" height="80" as="geometry" />
        </mxCell>
        <mxCell id="dgBgMq-GI6_0xmcY7j5n-8" value="" style="edgeStyle=orthogonalEdgeStyle;rounded=0;orthogonalLoop=1;jettySize=auto;html=1;" parent="1" source="dgBgMq-GI6_0xmcY7j5n-5" target="dgBgMq-GI6_0xmcY7j5n-7" edge="1">
          <mxGeometry relative="1" as="geometry" />
        </mxCell>
        <mxCell id="dgBgMq-GI6_0xmcY7j5n-5" value="Read player&lt;br&gt;Controls" style="shape=parallelogram;perimeter=parallelogramPerimeter;whiteSpace=wrap;html=1;fixedSize=1;strokeColor=#82b366;fillColor=#d5e8d4;" parent="1" vertex="1">
          <mxGeometry x="10" y="580" width="120" height="60" as="geometry" />
        </mxCell>
        <mxCell id="dgBgMq-GI6_0xmcY7j5n-12" value="" style="edgeStyle=orthogonalEdgeStyle;rounded=0;orthogonalLoop=1;jettySize=auto;html=1;" parent="1" source="dgBgMq-GI6_0xmcY7j5n-7" target="dgBgMq-GI6_0xmcY7j5n-11" edge="1">
          <mxGeometry relative="1" as="geometry" />
        </mxCell>
        <mxCell id="dgBgMq-GI6_0xmcY7j5n-7" value="Update snake position and direction" style="whiteSpace=wrap;html=1;strokeColor=#82b366;fillColor=#d5e8d4;" parent="1" vertex="1">
          <mxGeometry x="210" y="580" width="120" height="60" as="geometry" />
        </mxCell>
        <mxCell id="dgBgMq-GI6_0xmcY7j5n-11" value="Did snake&lt;br&gt;hit food?" style="rhombus;whiteSpace=wrap;html=1;strokeColor=#82b366;fillColor=#d5e8d4;" parent="1" vertex="1">
          <mxGeometry x="430" y="570" width="80" height="80" as="geometry" />
        </mxCell>
        <mxCell id="dgBgMq-GI6_0xmcY7j5n-18" value="" style="edgeStyle=orthogonalEdgeStyle;rounded=0;orthogonalLoop=1;jettySize=auto;html=1;" parent="1" source="dgBgMq-GI6_0xmcY7j5n-13" target="dgBgMq-GI6_0xmcY7j5n-17" edge="1">
          <mxGeometry relative="1" as="geometry" />
        </mxCell>
        <mxCell id="dgBgMq-GI6_0xmcY7j5n-13" value="Increase snake&lt;br&gt;length by 1" style="whiteSpace=wrap;html=1;strokeColor=#82b366;fillColor=#d5e8d4;" parent="1" vertex="1">
          <mxGeometry x="570" y="580" width="120" height="60" as="geometry" />
        </mxCell>
        <mxCell id="dgBgMq-GI6_0xmcY7j5n-15" value="" style="endArrow=classic;html=1;exitX=1;exitY=0.5;exitDx=0;exitDy=0;entryX=0;entryY=0.5;entryDx=0;entryDy=0;" parent="1" source="dgBgMq-GI6_0xmcY7j5n-11" target="dgBgMq-GI6_0xmcY7j5n-13" edge="1">
          <mxGeometry relative="1" as="geometry">
            <mxPoint x="400" y="680" as="sourcePoint" />
            <mxPoint x="500" y="680" as="targetPoint" />
          </mxGeometry>
        </mxCell>
        <mxCell id="dgBgMq-GI6_0xmcY7j5n-16" value="Yes" style="edgeLabel;resizable=0;html=1;align=center;verticalAlign=middle;" parent="dgBgMq-GI6_0xmcY7j5n-15" connectable="0" vertex="1">
          <mxGeometry relative="1" as="geometry" />
        </mxCell>
        <mxCell id="dgBgMq-GI6_0xmcY7j5n-17" value="Draw screen" style="whiteSpace=wrap;html=1;strokeColor=#82b366;fillColor=#d5e8d4;" parent="1" vertex="1">
          <mxGeometry x="770" y="580" width="120" height="60" as="geometry" />
        </mxCell>
        <mxCell id="dgBgMq-GI6_0xmcY7j5n-19" value="" style="endArrow=classic;html=1;entryX=0.5;entryY=1;entryDx=0;entryDy=0;edgeStyle=orthogonalEdgeStyle;jumpStyle=none;" parent="1" target="dgBgMq-GI6_0xmcY7j5n-5" edge="1">
          <mxGeometry width="50" height="50" relative="1" as="geometry">
            <mxPoint x="830" y="640" as="sourcePoint" />
            <mxPoint x="790" y="340" as="targetPoint" />
            <Array as="points">
              <mxPoint x="830" y="700" />
              <mxPoint x="70" y="700" />
            </Array>
          </mxGeometry>
        </mxCell>
        <mxCell id="dgBgMq-GI6_0xmcY7j5n-20" value="" style="endArrow=classic;html=1;exitX=0;exitY=0.5;exitDx=0;exitDy=0;entryX=1.015;entryY=0.433;entryDx=0;entryDy=0;entryPerimeter=0;edgeStyle=orthogonalEdgeStyle;" parent="1" source="fEwWPPyDHbLscD8lhj89-8" target="fEwWPPyDHbLscD8lhj89-4" edge="1">
          <mxGeometry relative="1" as="geometry">
            <mxPoint x="490" y="400" as="sourcePoint" />
            <mxPoint x="590" y="400" as="targetPoint" />
            <Array as="points">
              <mxPoint x="530" y="210" />
              <mxPoint x="530" y="280" />
              <mxPoint x="400" y="280" />
              <mxPoint x="400" y="346" />
            </Array>
          </mxGeometry>
        </mxCell>
        <mxCell id="dgBgMq-GI6_0xmcY7j5n-21" value="Yes" style="edgeLabel;resizable=0;html=1;align=center;verticalAlign=middle;" parent="dgBgMq-GI6_0xmcY7j5n-20" connectable="0" vertex="1">
          <mxGeometry relative="1" as="geometry" />
        </mxCell>
        <mxCell id="dgBgMq-GI6_0xmcY7j5n-22" value="" style="endArrow=classic;html=1;exitX=0.5;exitY=0;exitDx=0;exitDy=0;entryX=0.5;entryY=1;entryDx=0;entryDy=0;" parent="1" source="fEwWPPyDHbLscD8lhj89-8" edge="1">
          <mxGeometry relative="1" as="geometry">
            <mxPoint x="480" y="400" as="sourcePoint" />
            <mxPoint x="630" y="90" as="targetPoint" />
          </mxGeometry>
        </mxCell>
        <mxCell id="dgBgMq-GI6_0xmcY7j5n-23" value="No" style="edgeLabel;resizable=0;html=1;align=center;verticalAlign=middle;" parent="dgBgMq-GI6_0xmcY7j5n-22" connectable="0" vertex="1">
          <mxGeometry relative="1" as="geometry" />
        </mxCell>
        <mxCell id="dgBgMq-GI6_0xmcY7j5n-25" value="" style="endArrow=classic;html=1;exitX=0.5;exitY=0;exitDx=0;exitDy=0;edgeStyle=orthogonalEdgeStyle;entryX=0.5;entryY=1;entryDx=0;entryDy=0;" parent="1" source="dgBgMq-GI6_0xmcY7j5n-11" target="dgBgMq-GI6_0xmcY7j5n-27" edge="1">
          <mxGeometry relative="1" as="geometry">
            <mxPoint x="490" y="400" as="sourcePoint" />
            <mxPoint x="490" y="500" as="targetPoint" />
          </mxGeometry>
        </mxCell>
        <mxCell id="dgBgMq-GI6_0xmcY7j5n-26" value="No" style="edgeLabel;resizable=0;html=1;align=center;verticalAlign=middle;" parent="dgBgMq-GI6_0xmcY7j5n-25" connectable="0" vertex="1">
          <mxGeometry relative="1" as="geometry" />
        </mxCell>
        <mxCell id="dgBgMq-GI6_0xmcY7j5n-27" value="Did snake&lt;br&gt;crash?" style="rhombus;whiteSpace=wrap;html=1;fillColor=#d5e8d4;strokeColor=#82b366;" parent="1" vertex="1">
          <mxGeometry x="430" y="440" width="80" height="80" as="geometry" />
        </mxCell>
        <mxCell id="dgBgMq-GI6_0xmcY7j5n-28" value="" style="endArrow=classic;html=1;exitX=0.5;exitY=0;exitDx=0;exitDy=0;entryX=0;entryY=0.5;entryDx=0;entryDy=0;edgeStyle=orthogonalEdgeStyle;" parent="1" source="dgBgMq-GI6_0xmcY7j5n-27" target="fEwWPPyDHbLscD8lhj89-6" edge="1">
          <mxGeometry relative="1" as="geometry">
            <mxPoint x="480" y="440" as="sourcePoint" />
            <mxPoint x="580" y="440" as="targetPoint" />
          </mxGeometry>
        </mxCell>
        <mxCell id="dgBgMq-GI6_0xmcY7j5n-29" value="Yes" style="edgeLabel;resizable=0;html=1;align=center;verticalAlign=middle;" parent="dgBgMq-GI6_0xmcY7j5n-28" connectable="0" vertex="1">
          <mxGeometry relative="1" as="geometry" />
        </mxCell>
        <mxCell id="dgBgMq-GI6_0xmcY7j5n-30" value="" style="endArrow=classic;html=1;exitX=1;exitY=0.5;exitDx=0;exitDy=0;entryX=0;entryY=0.5;entryDx=0;entryDy=0;edgeStyle=orthogonalEdgeStyle;" parent="1" source="dgBgMq-GI6_0xmcY7j5n-27" target="dgBgMq-GI6_0xmcY7j5n-17" edge="1">
          <mxGeometry relative="1" as="geometry">
            <mxPoint x="480" y="440" as="sourcePoint" />
            <mxPoint x="570" y="480" as="targetPoint" />
            <Array as="points">
              <mxPoint x="730" y="480" />
              <mxPoint x="730" y="610" />
            </Array>
          </mxGeometry>
        </mxCell>
        <mxCell id="dgBgMq-GI6_0xmcY7j5n-31" value="No" style="edgeLabel;resizable=0;html=1;align=center;verticalAlign=middle;" parent="dgBgMq-GI6_0xmcY7j5n-30" connectable="0" vertex="1">
          <mxGeometry relative="1" as="geometry" />
        </mxCell>
      </root>
    </mxGraphModel>
  </diagram>
</mxfile>
